<?xml version="1.0" encoding="iso-8859-1"?>
<!-- Generator: Adobe Illustrator 21.0.0, SVG Export Plug-In . SVG Version: 6.00 Build 0)  -->
<svg version="1.1" id="Capa_1" xmlns="http://www.w3.org/2000/svg" xmlns:xlink="http://www.w3.org/1999/xlink" x="0px" y="0px"
	 viewBox="0 0 512 512" style="enable-background:new 0 0 512 512;" xml:space="preserve">
<linearGradient id="SVGID_1_" gradientUnits="userSpaceOnUse" x1="0" y1="258" x2="512" y2="258" gradientTransform="matrix(1 0 0 -1 0 514)">
	<stop  offset="0" style="stop-color:#00F2FE"/>
	<stop  offset="0.021" style="stop-color:#03EFFE"/>
	<stop  offset="0.293" style="stop-color:#24D2FE"/>
	<stop  offset="0.554" style="stop-color:#3CBDFE"/>
	<stop  offset="0.796" style="stop-color:#4AB0FE"/>
	<stop  offset="1" style="stop-color:#4FACFE"/>
</linearGradient>
<path style="fill:url(#SVGID_1_);" d="M275,285v42.079h25.409c0.492,0,1.137-0.012,1.923-0.024
	c46.04-0.729,86.562,9.736,120.362,31.124c9.334,5.906,12.112,18.261,6.206,27.595c-3.806,6.016-10.291,9.309-16.919,9.309
	c-3.657,0-7.357-1.002-10.676-3.103c-27.104-17.151-60.202-25.528-98.335-24.93c-1.048,0.017-1.906,0.029-2.562,0.029H275V412
	c0,11.046-8.954,20-20,20s-20-8.954-20-20v-44.921h-24.408c-0.655,0-1.514-0.013-2.562-0.029c-38.15-0.596-71.23,7.778-98.336,24.93
	c-9.334,5.907-21.688,3.128-27.595-6.206s-3.128-21.688,6.206-27.595c33.802-21.388,74.323-31.822,120.363-31.124
	c0.786,0.013,1.431,0.024,1.923,0.024H235V285h-24.408c-0.658,0-1.518-0.013-2.563-0.029c-37.535-0.624-70.24,7.784-97.335,24.93
	c-9.334,5.907-21.688,3.128-27.595-6.206s-3.128-21.688,6.206-27.595c33.793-21.383,73.928-31.852,119.367-31.124
	c0.782,0.013,1.426,0.024,1.919,0.024H235v-41.912h-21.949c-0.568,0-1.334-0.011-2.28-0.025
	c-49.715-0.737-73.786,13.532-85.219,25.658c-7.577,8.035-20.233,8.408-28.272,0.831c-8.036-7.577-8.408-20.235-0.831-28.272
	c16.949-17.977,50.669-39.204,114.936-38.212c0.691,0.011,1.251,0.021,1.667,0.021h21.949v-41.181h-29
	c-7.87,0-33.442,4.876-47.117,16.392c-3.751,3.159-8.324,4.702-12.873,4.702c-5.695,0-11.352-2.419-15.308-7.117
	c-7.115-8.449-6.034-21.066,2.415-28.181c23.145-19.49,59.098-25.796,72.883-25.796h99c15.058,0,49.893,5.403,73.953,25.854
	c8.416,7.154,9.439,19.776,2.285,28.192c-7.151,8.416-19.773,9.439-28.191,2.286c-14.376-12.221-39.015-16.333-48.047-16.333h-30
	v41.18h23.691c0.258,0,0.523-0.001,0.785-0.001c30.388,0,84.978,5.082,115.322,38.462c7.43,8.173,6.828,20.822-1.346,28.252
	c-3.831,3.483-8.647,5.201-13.447,5.201c-5.438,0-10.857-2.205-14.805-6.547c-14.669-16.136-45.863-25.368-85.649-25.368
	c-0.25,0-0.495,0-0.745,0.001l-0.857,0.002H275V245h25.409c0.492,0,1.137-0.012,1.923-0.024
	c46.04-0.726,86.562,9.736,120.362,31.124c9.334,5.906,12.112,18.261,6.206,27.595c-3.806,6.016-10.291,9.309-16.919,9.309
	c-3.657,0-7.357-1.002-10.676-3.103c-27.104-17.151-60.202-25.538-98.335-24.93c-1.048,0.017-1.906,0.029-2.562,0.029H275z M492,352
	c11.046,0,20-8.954,20-20V80c0-44.112-35.888-80-80-80H80C35.888,0,0,35.888,0,80v352c0,44.112,35.888,80,80,80h352
	c44.112,0,80-35.888,80-80c0-11.046-8.954-20-20-20s-20,8.954-20,20c0,22.056-17.944,40-40,40H80c-22.056,0-40-17.944-40-40V80
	c0-22.056,17.944-40,40-40h352c22.056,0,40,17.944,40,40v252C472,343.046,480.954,352,492,352z"/>
<g>
</g>
<g>
</g>
<g>
</g>
<g>
</g>
<g>
</g>
<g>
</g>
<g>
</g>
<g>
</g>
<g>
</g>
<g>
</g>
<g>
</g>
<g>
</g>
<g>
</g>
<g>
</g>
<g>
</g>
</svg>
